<svg xmlns="http://www.w3.org/2000/svg" xmlns:xlink="http://www.w3.org/1999/xlink" viewBox="0 0 215 215"><defs><style>.cls-1,.cls-10,.cls-11,.cls-5,.cls-6,.cls-7,.cls-9{fill:none;}.cls-2{fill:#65bf79;}.cls-3{clip-path:url(#clip-path);}.cls-4{fill:#f8eb92;}.cls-5,.cls-6,.cls-7,.cls-9{stroke:#069b49;stroke-linejoin:round;}.cls-10,.cls-5,.cls-6,.cls-7,.cls-9{stroke-linecap:round;}.cls-10,.cls-11,.cls-5{stroke-width:2px;}.cls-7{stroke-width:1.5px;}.cls-8{fill:#069b49;}.cls-9{stroke-width:3px;}.cls-10,.cls-11{stroke:#231f20;stroke-miterlimit:10;}.cls-12{fill:#fff;}</style><clipPath id="clip-path"><rect class="cls-1" width="215" height="215"/></clipPath></defs><g id="Background"><rect class="cls-2" width="215" height="215"/></g><g id="color"><g class="cls-3"><path class="cls-4" d="M218.66,133l-4.46,1.09A2.05,2.05,0,0,1,213,134l-9.15-3.77a2,2,0,0,0-2.15.41l-4.71,4.51a2,2,0,0,0-.51,2.13l3.39,9.31a2.05,2.05,0,0,1,0,1.25c-.66,2.27-.38,1.28-1.28,4.4a2,2,0,0,1-.71,1l-7.85,6a2,2,0,0,0-.72,2.07l1.55,6.34a2,2,0,0,0,1.6,1.5L202.2,171a2.08,2.08,0,0,1,1.11.59l3.17,3.32A2.07,2.07,0,0,1,207,176l1.3,9.82a2,2,0,0,0,1.43,1.66l6.28,1.82a2,2,0,0,0,2.09-.64l6.36-7.57a2,2,0,0,1,1.06-.66l4.47-1.09a2,2,0,0,1,1.24.09l9.15,3.77a2,2,0,0,0,2.15-.4l4.71-4.52a2,2,0,0,0,.51-2.13l-3.39-9.3a2.05,2.05,0,0,1,0-1.25c1-3.42.4-1.37,1.28-4.41a2,2,0,0,1,.71-1l7.85-6a2,2,0,0,0,.72-2.06c-1-4-.58-2.39-1.55-6.35a2,2,0,0,0-1.6-1.5L242,142.47a2,2,0,0,1-1.11-.59l-3.17-3.32a2,2,0,0,1-.54-1.12l-1.3-9.81a2,2,0,0,0-1.43-1.66l-6.28-1.82a2,2,0,0,0-2.09.63l-6.36,7.58A2.11,2.11,0,0,1,218.66,133Zm18.19,25.08a14.82,14.82,0,1,1-10.48-15.57A14.82,14.82,0,0,1,236.85,158.1Z"/><path class="cls-4" d="M204.05,218.38l11.42-5.19a2,2,0,0,0,1.16-2c-.17-2-.35-4.23-.5-6a2,2,0,0,0-1.48-1.75l-12.15-3.19a2,2,0,0,1-1.26-1c-.72-1.37-1.66-3.2-2.38-4.58a2,2,0,0,1-.1-1.62l4.39-11.75a2,2,0,0,0-.58-2.23c-1.63-1.36-3.29-2.76-4.59-3.86a2,2,0,0,0-2.28-.19l-10.84,6.34a2,2,0,0,1-1.62.18l-4.9-1.55a2,2,0,0,1-1.22-1.08l-5.2-11.42a2,2,0,0,0-2-1.17l-5.91.51a2.05,2.05,0,0,0-1.79,1.51L159,180.5a2,2,0,0,1-1,1.25c-1.18.64-3.23,1.75-4.61,2.42a2,2,0,0,1-1.58.08l-11.81-4.41a2,2,0,0,0-2.21.58L134,185a2,2,0,0,0-.19,2.28l6.35,10.84a2,2,0,0,1,.18,1.62c-.6,1.87-1,3-1.56,4.9a2,2,0,0,1-1.08,1.22l-11.4,5.2a2,2,0,0,0-1.18,2c.4,4.58.11,1.34.5,5.91a2.05,2.05,0,0,0,1.51,1.79L139.23,224a2,2,0,0,1,1.27,1l2.36,4.57a2,2,0,0,1,.1,1.62l-4.39,11.77a2,2,0,0,0,.57,2.22c1.53,1.31,3.12,2.62,4.59,3.86a2,2,0,0,0,2.29.19l10.84-6.35a2,2,0,0,1,1.62-.18l4.91,1.56a2,2,0,0,1,1.22,1.08l5.2,11.42a2,2,0,0,0,2,1.16l6-.5a2,2,0,0,0,1.76-1.48l3.18-12.15a2,2,0,0,1,1-1.28l4.56-2.37a2,2,0,0,1,1.63-.1l11.75,4.4a2,2,0,0,0,2.23-.59l3.86-4.58A2,2,0,0,0,208,237c-1.53-2.61-5.1-8.71-6.35-10.86a2,2,0,0,1-.18-1.61c.61-1.91,1.13-3.57,1.56-4.92A2,2,0,0,1,204.05,218.38Zm-29.69,10.08A16.71,16.71,0,1,1,187.55,213,16.7,16.7,0,0,1,174.36,228.46Z"/><path class="cls-4" d="M71.59-28l-4.46-1.08a2,2,0,0,1-1.07-.66L59.67-37.3a2,2,0,0,0-2.09-.63l-6.26,1.84a2,2,0,0,0-1.43,1.66l-1.28,9.82a2,2,0,0,1-.54,1.13l-3.16,3.32a2,2,0,0,1-1.1.59l-9.75,1.75a2,2,0,0,0-1.59,1.5c-1,4-.58,2.38-1.55,6.35a2,2,0,0,0,.73,2.06l7.87,6a2.05,2.05,0,0,1,.71,1c.79,2.72.29,1,1.29,4.41a2,2,0,0,1,0,1.24L38.12,14.1a2,2,0,0,0,.5,2.14l4.74,4.5a2,2,0,0,0,2.15.4l9.13-3.8a2.06,2.06,0,0,1,1.25-.09l4.46,1.08a2,2,0,0,1,1.06.66l6.39,7.56a2,2,0,0,0,2.1.63l6.26-1.84a2,2,0,0,0,1.43-1.66l1.27-9.82a2,2,0,0,1,.54-1.12l3.17-3.33a2,2,0,0,1,1.1-.59l9.75-1.75A2,2,0,0,0,95,5.57c1-4,.58-2.38,1.54-6.35a2,2,0,0,0-.73-2.06L88-8.86a2,2,0,0,1-.71-1c-1-3.25-.64-2.17-1.29-4.41a2,2,0,0,1,0-1.24l3.36-9.31A2,2,0,0,0,88.85-27l-4.73-4.51a2,2,0,0,0-2.15-.4l-9.14,3.8A2,2,0,0,1,71.59-28ZM76.2,2.65A14.84,14.84,0,0,1,52.77,4.59a14.84,14.84,0,0,1-1.49-18A14.82,14.82,0,0,1,74.06-16,14.88,14.88,0,0,1,76.2,2.65Z"/><path class="cls-4" d="M22.72,7.63,32,6.13a1.5,1.5,0,0,0,1.23-1.2c.28-1.51.57-3.13.81-4.41A1.51,1.51,0,0,0,33.3-1L25.16-5.73a1.46,1.46,0,0,1-.71-1c-.25-1.14-.57-2.64-.82-3.78a1.46,1.46,0,0,1,.25-1.18l5.48-7.62a1.49,1.49,0,0,0,0-1.72l-2.55-3.69a1.49,1.49,0,0,0-1.61-.59l-9.07,2.44A1.49,1.49,0,0,1,15-23l-3.23-2.08a1.5,1.5,0,0,1-.67-1l-1.5-9.26a1.54,1.54,0,0,0-1.23-1.25L4-37.43a1.52,1.52,0,0,0-1.59.73l-4.68,8.13a1.48,1.48,0,0,1-1,.71c-1,.23-2.67.62-3.8.84a1.48,1.48,0,0,1-1.15-.26l-7.66-5.5a1.46,1.46,0,0,0-1.7,0l-3.7,2.55a1.49,1.49,0,0,0-.59,1.61l2.45,9.07a1.52,1.52,0,0,1-.19,1.21l-2.09,3.22a1.5,1.5,0,0,1-1,.67L-32-13a1.52,1.52,0,0,0-1.25,1.22L-34-7.37a1.52,1.52,0,0,0,.73,1.59l8.13,4.67a1.49,1.49,0,0,1,.72,1c.3,1.44.5,2.32.8,3.76a1.51,1.51,0,0,1-.24,1.19l-5.49,7.63a1.49,1.49,0,0,0,0,1.71c.85,1.25,1.73,2.51,2.56,3.69a1.49,1.49,0,0,0,1.61.59L-16.16,16a1.48,1.48,0,0,1,1.21.2l3.23,2.09a1.5,1.5,0,0,1,.67,1l1.5,9.26a1.5,1.5,0,0,0,1.2,1.23l4.41.81a1.5,1.5,0,0,0,1.56-.73l4.69-8.14a1.52,1.52,0,0,1,1-.71l3.77-.82a1.48,1.48,0,0,1,1.19.25L15.86,26a1.49,1.49,0,0,0,1.73,0l3.69-2.54a1.47,1.47,0,0,0,.58-1.6c-.58-2.18-2-7.29-2.44-9.08a1.49,1.49,0,0,1,.19-1.2L21.7,8.29A1.52,1.52,0,0,1,22.72,7.63ZM-.7,9.05A12.48,12.48,0,0,1-11.87-7.3,12.51,12.51,0,0,1,.69-15.89,12.5,12.5,0,0,1,11.87.48,12.51,12.51,0,0,1-.7,9.05Z"/><path class="cls-4" d="M28.26,71.67l9-2.84a1.49,1.49,0,0,0,1-1.37c0-1.54.11-3.17.15-4.48a1.46,1.46,0,0,0-.94-1.43L28.73,58.1a1.5,1.5,0,0,1-.85-.86l-1.36-3.62a1.5,1.5,0,0,1,.07-1.21l4.31-8.33a1.5,1.5,0,0,0-.24-1.71L27.6,39.09a1.47,1.47,0,0,0-1.67-.34l-8.62,3.74a1.52,1.52,0,0,1-1.22,0l-3.5-1.59a1.55,1.55,0,0,1-.81-.91L8.94,31A1.53,1.53,0,0,0,7.54,30l-4.43-.15a1.53,1.53,0,0,0-1.47,1l-3.43,8.73a1.52,1.52,0,0,1-.85.84c-.93.36-2.55,1-3.63,1.38a1.47,1.47,0,0,1-1.18-.08l-8.38-4.33a1.49,1.49,0,0,0-1.69.24l-3.29,3.06a1.5,1.5,0,0,0-.34,1.68l3.75,8.61a1.51,1.51,0,0,1,0,1.23L-19,55.65a1.49,1.49,0,0,1-.91.81l-8.93,2.85a1.5,1.5,0,0,0-1,1.39c-.12,3.44,0,1-.16,4.44a1.51,1.51,0,0,0,1,1.46L-20.38,70a1.52,1.52,0,0,1,.86.88c.51,1.37.83,2.23,1.35,3.6a1.53,1.53,0,0,1-.07,1.22l-4.32,8.35a1.49,1.49,0,0,0,.23,1.69c1,1.11,2.08,2.23,3.07,3.28a1.49,1.49,0,0,0,1.68.34L-9,85.65a1.48,1.48,0,0,1,1.22,0l3.5,1.59a1.49,1.49,0,0,1,.81.91l2.84,9a1.5,1.5,0,0,0,1.37,1l4.48.15a1.49,1.49,0,0,0,1.44-.94l3.44-8.74a1.49,1.49,0,0,1,.87-.85l3.61-1.36a1.46,1.46,0,0,1,1.21.07l8.34,4.31a1.48,1.48,0,0,0,1.71-.23l3.27-3.06a1.48,1.48,0,0,0,.35-1.67L25.75,77.2a1.5,1.5,0,0,1,0-1.21c.61-1.37,1.15-2.55,1.59-3.51A1.47,1.47,0,0,1,28.26,71.67Zm-23,4.84A12.49,12.49,0,1,1,16.49,66.18,12.5,12.5,0,0,1,5.31,76.51Z"/></g></g><g id="Outline"><g class="cls-3"><polyline class="cls-5" points="0.61 132.64 5 128.25 5 99"/><polyline class="cls-5" points="25.84 215 39 201.47 39 129.6 22 112.12 22 104"/><polyline class="cls-5" points="34 207 34 134.38 16 116.38 16 104"/><polyline class="cls-6" points="44.96 215 50.5 209.46 50.5 177.51 42.5 169.51 42.5 135.65 48.5 129.65 48.5 104.23 36.41 92.14"/><polyline class="cls-6" points="50.5 189.65 60.5 179.64 60.5 171.45 55.5 166.45 55.5 138.22 61.5 132.22 61.5 112.86 69.03 105.33"/><polyline class="cls-7" points="-2 140 17.78 140 24 145.74 24 200.12 18 205.65 18 215"/><polyline class="cls-5" points="7.59 156.3 18 166.71 18 196.28 7 207.28 7 214"/><line class="cls-5" x1="6.66" y1="207.85" x2="0.11" y2="201.3"/><circle class="cls-7" cx="22" cy="102" r="2"/><circle class="cls-7" cx="16" cy="102" r="2"/><circle class="cls-7" cx="5" cy="154" r="2"/><circle class="cls-8" cx="35" cy="91" r="2"/><circle class="cls-8" cx="70" cy="104" r="2"/><polyline class="cls-9" points="186.5 0.5 186.5 30.84 195.5 39.84 195.5 79.44 187.5 87.44 187.5 111.44 178.5 120.44 178.5 138.5"/><polyline class="cls-5" points="194 0 194 26.74 204 36.74 204 84.44 214 94.44 214 117"/><polyline class="cls-5" points="210 0 210 10.18 214.91 15.09"/><polyline class="cls-5" points="210.16 9.18 204 15.34 204 26.05 212 34.05 212 57.08 214.94 60.02"/><polyline class="cls-6" points="174.5 0.5 174.5 33.99 182.5 41.99 182.5 68.01 175.5 75.01 175.5 84.5"/><polyline class="cls-6" points="161.5 0.5 161.5 13.48 151.5 23.48 151.5 47.35 161.5 57.35 161.5 90.02 169.05 97.57"/><polyline class="cls-6" points="161.1 26.79 164.5 30.19 164.5 63.2 168.73 67.43"/><circle class="cls-6" cx="160" cy="25" r="1.5"/><circle class="cls-6" cx="170" cy="69" r="1.5"/><circle class="cls-6" cx="175.5" cy="86.5" r="2"/><circle class="cls-9" cx="178" cy="142" r="3.5"/><circle class="cls-8" cx="170" cy="99" r="2"/><circle class="cls-5" cx="214" cy="121" r="3"/><path class="cls-10" d="M204.05,218.38l11.42-5.19a2,2,0,0,0,1.16-2c-.17-2-.35-4.23-.5-6a2,2,0,0,0-1.48-1.75l-12.15-3.19a2,2,0,0,1-1.26-1l-2.38-4.59a2,2,0,0,1-.1-1.61l4.39-11.76a2,2,0,0,0-.58-2.23c-1.63-1.36-3.29-2.76-4.59-3.86a2,2,0,0,0-2.28-.19l-10.84,6.34a2,2,0,0,1-1.62.18l-4.9-1.55a2,2,0,0,1-1.22-1.08l-5.2-11.41a2,2,0,0,0-2-1.18l-5.91.51a2.05,2.05,0,0,0-1.79,1.51L159,180.5a2,2,0,0,1-1,1.25c-1.18.64-3.23,1.75-4.61,2.42a2,2,0,0,1-1.58.08l-11.81-4.41a2,2,0,0,0-2.21.58L134,185a2,2,0,0,0-.19,2.28l6.35,10.84a2,2,0,0,1,.18,1.62c-.6,1.87-1,3-1.56,4.9a2,2,0,0,1-1.08,1.22l-11.4,5.2a2,2,0,0,0-1.18,2c.4,4.58.11,1.34.5,5.91a2.05,2.05,0,0,0,1.51,1.79L139.23,224a2,2,0,0,1,1.27,1l2.36,4.57a2,2,0,0,1,.1,1.63L138.57,243a2,2,0,0,0,.57,2.21c1.53,1.31,3.12,2.63,4.59,3.86a2,2,0,0,0,2.29.19l10.84-6.35a2,2,0,0,1,1.62-.17l4.91,1.55a2,2,0,0,1,1.22,1.08l5.2,11.43a2,2,0,0,0,2,1.16l6-.51a2,2,0,0,0,1.76-1.48l3.18-12.15a2,2,0,0,1,1-1.27l4.56-2.38a2,2,0,0,1,1.63-.1l11.75,4.4a2,2,0,0,0,2.23-.59l3.86-4.58A2,2,0,0,0,208,237l-6.35-10.85a2,2,0,0,1-.18-1.62c.61-1.91,1.13-3.57,1.56-4.92A2,2,0,0,1,204.05,218.38Zm-29.69,10.08A16.71,16.71,0,1,1,187.55,213,16.7,16.7,0,0,1,174.36,228.46Z"/><path class="cls-11" d="M218.66,133l-4.46,1.09A2.05,2.05,0,0,1,213,134l-9.15-3.77a2,2,0,0,0-2.15.41l-4.71,4.51a2,2,0,0,0-.51,2.13l3.39,9.31a2.05,2.05,0,0,1,0,1.25c-.66,2.27-.38,1.28-1.28,4.4a2,2,0,0,1-.71,1l-7.85,6a2,2,0,0,0-.72,2.07l1.55,6.34a2,2,0,0,0,1.6,1.5L202.2,171a2.08,2.08,0,0,1,1.11.59l3.17,3.32A2.07,2.07,0,0,1,207,176l1.3,9.82a2,2,0,0,0,1.43,1.66l6.28,1.82a2,2,0,0,0,2.09-.64l6.36-7.57a2,2,0,0,1,1.06-.66l4.47-1.09a2,2,0,0,1,1.24.09l9.15,3.77a2,2,0,0,0,2.15-.4l4.71-4.52a2,2,0,0,0,.51-2.13l-3.39-9.3a2.05,2.05,0,0,1,0-1.25c1-3.42.4-1.37,1.28-4.41a2,2,0,0,1,.71-1l7.85-6a2,2,0,0,0,.72-2.06c-1-4-.58-2.39-1.55-6.35a2,2,0,0,0-1.6-1.5L242,142.47a2,2,0,0,1-1.11-.59l-3.17-3.32a2,2,0,0,1-.54-1.12l-1.3-9.81a2,2,0,0,0-1.43-1.66l-6.28-1.82a2,2,0,0,0-2.09.63l-6.36,7.58A2.11,2.11,0,0,1,218.66,133Zm18.19,25.08a14.82,14.82,0,1,1-10.48-15.57A14.82,14.82,0,0,1,236.85,158.1Z"/><path class="cls-11" d="M48.18-23.58,45-20.28a2.08,2.08,0,0,1-1.1.59L34.13-18a2,2,0,0,0-1.6,1.49L31-10.18a2,2,0,0,0,.71,2.07L39.5-2a2.05,2.05,0,0,1,.7,1c.65,2.28.37,1.28,1.27,4.41a2.05,2.05,0,0,1,0,1.25L38,13.94a2,2,0,0,0,.5,2.14l4.7,4.54a2,2,0,0,0,2.15.41l9.16-3.75a2.06,2.06,0,0,1,1.25-.09l4.45,1.11a2.11,2.11,0,0,1,1.06.66l6.34,7.61a2,2,0,0,0,2.09.64L76,25.4a2,2,0,0,0,1.44-1.65l1.33-9.81a2,2,0,0,1,.55-1.12c2.59-2.69,1-1,3.19-3.3a2,2,0,0,1,1.1-.59l9.75-1.69a2,2,0,0,0,1.6-1.49c1-4,.59-2.38,1.58-6.34a2,2,0,0,0-.71-2.07L88-8.72a2.1,2.1,0,0,1-.7-1c-1-3.42-.39-1.37-1.27-4.41a2.05,2.05,0,0,1,0-1.25l3.42-9.29A2,2,0,0,0,89-26.84l-4.7-4.54a2,2,0,0,0-2.15-.41L73-28a2.06,2.06,0,0,1-1.25.09l-4.46-1.12a2,2,0,0,1-1.05-.66l-6.34-7.6A2,2,0,0,0,57.78-38L51.5-36.16a2,2,0,0,0-1.44,1.65l-1.33,9.8A2,2,0,0,1,48.18-23.58ZM77-12.08A14.82,14.82,0,0,1,66.8,9.11,14.84,14.84,0,0,1,50.52,1.32a14.82,14.82,0,0,1,9.26-21A14.89,14.89,0,0,1,77-12.08Z"/><path class="cls-10" d="M22.55,7.9l9.27-1.38a1.48,1.48,0,0,0,1.25-1.18c.29-1.51.61-3.12.86-4.4a1.49,1.49,0,0,0-.7-1.56L25.16-5.41a1.5,1.5,0,0,1-.7-1l-.76-3.78A1.48,1.48,0,0,1,24-11.36l5.57-7.54a1.49,1.49,0,0,0,0-1.72l-2.5-3.71a1.49,1.49,0,0,0-1.59-.61l-9.1,2.32a1.49,1.49,0,0,1-1.2-.2c-2.5-1.66-1-.67-3.2-2.13a1.47,1.47,0,0,1-.65-1L9.94-35.24A1.51,1.51,0,0,0,8.73-36.5l-4.35-.85a1.51,1.51,0,0,0-1.59.71L-2-28.58a1.49,1.49,0,0,1-1,.7c-1,.21-2.68.59-3.81.79a1.47,1.47,0,0,1-1.15-.27L-15.49-33a1.47,1.47,0,0,0-1.7,0l-3.73,2.51a1.46,1.46,0,0,0-.6,1.59l2.32,9.1a1.49,1.49,0,0,1-.2,1.2c-.82,1.22-1.31,2-2.13,3.2a1.49,1.49,0,0,1-1,.65l-9.27,1.39a1.52,1.52,0,0,0-1.26,1.21l-.85,4.34a1.51,1.51,0,0,0,.71,1.6l8.06,4.77a1.51,1.51,0,0,1,.7,1l.76,3.77A1.53,1.53,0,0,1-24,4.52l-5.58,7.55a1.47,1.47,0,0,0-.05,1.71c.83,1.25,1.7,2.52,2.51,3.71a1.48,1.48,0,0,0,1.6.61l9.09-2.33a1.5,1.5,0,0,1,1.2.21c1.23.82,2,1.31,3.21,2.13a1.54,1.54,0,0,1,.66,1l1.38,9.27a1.48,1.48,0,0,0,1.18,1.24l4.39.87a1.49,1.49,0,0,0,1.57-.71L2,21.74A1.49,1.49,0,0,1,3,21l3.77-.77a1.5,1.5,0,0,1,1.19.27l7.53,5.57a1.49,1.49,0,0,0,1.73,0l3.71-2.5a1.48,1.48,0,0,0,.61-1.59c-.56-2.18-1.86-7.3-2.32-9.1a1.47,1.47,0,0,1,.2-1.19l2.13-3.22A1.51,1.51,0,0,1,22.55,7.9ZM-.85,9a12.48,12.48,0,0,1-11-16.48A12.53,12.53,0,0,1,.85-15.88a12.49,12.49,0,0,1,11,16.5A12.49,12.49,0,0,1-.85,9Z"/><path class="cls-10" d="M16.15,86.29l8.39,4.19a1.51,1.51,0,0,0,1.7-.26c1.1-1.07,2.29-2.2,3.23-3.1a1.5,1.5,0,0,0,.32-1.69l-3.86-8.55a1.5,1.5,0,0,1,0-1.21l1.54-3.53a1.46,1.46,0,0,1,.9-.82l8.89-3a1.49,1.49,0,0,0,1-1.39c0-1.58.07-3.21.09-4.47a1.49,1.49,0,0,0-1-1.42l-8.78-3.31a1.52,1.52,0,0,1-.86-.86l-1.41-3.57a1.52,1.52,0,0,1,.06-1.22l4.18-8.38A1.5,1.5,0,0,0,30.31,42L27.24,38.8a1.52,1.52,0,0,0-1.72-.33L17,42.33a1.49,1.49,0,0,1-1.19,0c-.92-.39-2.53-1.06-3.57-1.54a1.52,1.52,0,0,1-.79-.88L8.44,31a1.48,1.48,0,0,0-1.37-1L2.58,29.9a1.47,1.47,0,0,0-1.41,1l-3.31,8.78a1.53,1.53,0,0,1-.86.87l-3.58,1.4a1.5,1.5,0,0,1-1.21-.06l-8.38-4.18a1.54,1.54,0,0,0-1.73.27c-2.48,2.39-.73.69-3.2,3.07a1.53,1.53,0,0,0-.33,1.72l3.86,8.53a1.48,1.48,0,0,1,0,1.22c-.59,1.35-1,2.18-1.55,3.52a1.47,1.47,0,0,1-.89.82l-8.9,3a1.46,1.46,0,0,0-1,1.37c0,1.5-.06,3-.08,4.48a1.49,1.49,0,0,0,1,1.42l8.77,3.31a1.48,1.48,0,0,1,.87.86L-18,74.83A1.52,1.52,0,0,1-18,76.05l-4.19,8.39A1.47,1.47,0,0,0-22,86.13l3.1,3.23a1.5,1.5,0,0,0,1.69.33l8.55-3.87a1.52,1.52,0,0,1,1.22,0l3.52,1.54a1.51,1.51,0,0,1,.83.9l3,8.89a1.48,1.48,0,0,0,1.39,1l4.47.09a1.47,1.47,0,0,0,1.41-1c.8-2.11,2.67-7.05,3.32-8.79a1.52,1.52,0,0,1,.86-.86l3.58-1.41A1.5,1.5,0,0,1,16.15,86.29ZM-3.66,73.78a12.48,12.48,0,1,1,15.19.38A12.48,12.48,0,0,1-3.66,73.78Z"/></g></g><g id="Text"><path class="cls-12" d="M76.61,62.52l-.46-1.1a2.45,2.45,0,0,0-1.05-1.27A1.74,1.74,0,0,1,74,58.65q0-2,6-2a16.65,16.65,0,0,1,4.58.48,1.88,1.88,0,0,1,.85.55,1.23,1.23,0,0,1,.32.84,1,1,0,0,1-.14.59,7.34,7.34,0,0,1-.83.8.92.92,0,0,0-.39.69,5,5,0,0,0,.6,1.82l.89,1.92A12.47,12.47,0,0,0,86.75,66a.73.73,0,0,0,.59.36.74.74,0,0,0,.62-.41,9.6,9.6,0,0,0,.67-1.6l.75-2.2a5,5,0,0,0,.31-1.41.81.81,0,0,0-.65-.83c-.88-.29-1.32-.79-1.32-1.51a1.4,1.4,0,0,1,1-1.35,9.92,9.92,0,0,1,3.36-.41,6.51,6.51,0,0,1,2.37.35,1.57,1.57,0,0,1,1.17,1.5,1.43,1.43,0,0,1-.21.79,5,5,0,0,1-.85.88,2.77,2.77,0,0,0-.66.77,14.29,14.29,0,0,0-.69,1.68l-2.75,7.29Q88.43,75,88,76a15.62,15.62,0,0,1-.88,1.74,2.09,2.09,0,0,1-.77.79,2.41,2.41,0,0,1-1.13.23,2.55,2.55,0,0,1-1.51-.41,3,3,0,0,1-1-1.35l-3.11-7.37a3.63,3.63,0,0,0-.37-.77.42.42,0,0,0-.35-.16.65.65,0,0,0-.56.39,18.68,18.68,0,0,0-.9,2l-2.13,5.3a5.37,5.37,0,0,1-1.14,1.91,2.47,2.47,0,0,1-1.64.46A2.4,2.4,0,0,1,71,78.28a4.05,4.05,0,0,1-1-1.66L64.16,61.85a6.88,6.88,0,0,0-.49-1.08,3.47,3.47,0,0,0-.84-.54,1.41,1.41,0,0,1-.8-1.38q0-2.2,5.49-2.21a15,15,0,0,1,4.06.39,1.53,1.53,0,0,1,1.21,1.55,1.7,1.7,0,0,1-.06.53,4.46,4.46,0,0,1-.46.73,1.4,1.4,0,0,0-.18.74,11.32,11.32,0,0,0,1,3.26l.64,1.51a10.2,10.2,0,0,0,.54,1.14.44.44,0,0,0,.39.19c.4,0,.82-.58,1.25-1.74l.65-1.79a.79.79,0,0,0,.07-.3A1,1,0,0,0,76.61,62.52Z"/><path class="cls-12" d="M104.09,62.73a8.6,8.6,0,0,1,5,1.49,8,8,0,0,1,2.5,2.78,7.66,7.66,0,0,1,1,3.73,7.09,7.09,0,0,1-3.12,5.79,10.94,10.94,0,0,1-6.83,2.28,8.59,8.59,0,0,1-6.07-2.14,7,7,0,0,1-2.26-5.4,7.6,7.6,0,0,1,2.76-6.05A10.37,10.37,0,0,1,104.09,62.73Zm-1.26,3.62a1.37,1.37,0,0,0-1.11.51,2.14,2.14,0,0,0-.41,1.36,13.29,13.29,0,0,0,.35,2.57,20.8,20.8,0,0,0,.84,2.88A1.67,1.67,0,0,0,104.09,75c.93,0,1.39-.59,1.39-1.77a15.13,15.13,0,0,0-.35-3,12.25,12.25,0,0,0-.86-2.73A1.65,1.65,0,0,0,102.83,66.35Z"/><path class="cls-12" d="M121.05,62.84c.55,0,.89.08,1,.23a4.16,4.16,0,0,1,.32,1.51c.06.46.22.69.49.69s.41-.15.6-.46a3.77,3.77,0,0,1,3.28-2,3.14,3.14,0,0,1,2.34.93,3.53,3.53,0,0,1,.72,1.17,3.65,3.65,0,0,1,.28,1.37,3.92,3.92,0,0,1-.34,1.52,3.88,3.88,0,0,1-.9,1.27,3.43,3.43,0,0,1-2.46,1,2.9,2.9,0,0,1-1.35-.28,6.85,6.85,0,0,1-1.42-1.15.91.91,0,0,0-.61-.33.57.57,0,0,0-.57.5,10,10,0,0,0-.13,2.08,19.11,19.11,0,0,0,.17,3.23,1.23,1.23,0,0,0,.3.65,2.4,2.4,0,0,0,.84.37c.95.28,1.42.78,1.42,1.48a1.59,1.59,0,0,1-.46,1.12,2.17,2.17,0,0,1-1.21.63,23.08,23.08,0,0,1-4.42.32,13.75,13.75,0,0,1-4.22-.49,1.59,1.59,0,0,1-1.29-1.52,1.8,1.8,0,0,1,.94-1.46,2.6,2.6,0,0,0,.63-.54,1.6,1.6,0,0,0,.23-.67,35.51,35.51,0,0,0,.26-5.29,2.42,2.42,0,0,0-.16-1,1.17,1.17,0,0,0-.63-.49c-.74-.3-1.11-.72-1.11-1.28a1.54,1.54,0,0,1,.77-1.29,9.46,9.46,0,0,1,2.57-1.08A15.25,15.25,0,0,1,121.05,62.84Z"/><path class="cls-12" d="M139.07,57.72l-.14,4.91c0,.49,0,1.22,0,2.17s0,1.68.05,1.87c.07.43.29.64.66.64a3.28,3.28,0,0,0,1.44-.6c.65-.41,1-.71,1-.91a1.4,1.4,0,0,0-.34-.62,1,1,0,0,1-.25-.63c0-1.13,1.39-1.7,4.17-1.7a10.75,10.75,0,0,1,3.42.44,1.79,1.79,0,0,1,.83.6,1.44,1.44,0,0,1,.33.91,1,1,0,0,1-.67,1,6.59,6.59,0,0,1-.91.2,5.31,5.31,0,0,0-1.79.86c-.73.48-1.1.84-1.1,1.06A10.51,10.51,0,0,0,147.05,70c.88,1.23,1.7,2.3,2.47,3.21a12.8,12.8,0,0,0,1.15,1.26,6.65,6.65,0,0,0,1.16.76c.75.41,1.13.88,1.13,1.4a1.46,1.46,0,0,1-.72,1.3,3.45,3.45,0,0,1-2,.47H145.2a1.83,1.83,0,0,1-1.49-.7l-2.6-3.34c-.69-.88-1.11-1.41-1.27-1.57s-.28-.26-.38-.26-.21.1-.25.29a6.08,6.08,0,0,0-.06,1.06,2.56,2.56,0,0,0,.15,1,2.7,2.7,0,0,0,.72.78,1.15,1.15,0,0,1,.41,1,1.66,1.66,0,0,1-1.16,1.59,10.91,10.91,0,0,1-3.83.48,19.79,19.79,0,0,1-4.08-.26,1.84,1.84,0,0,1-.91-.64,1.63,1.63,0,0,1-.38-1,1.26,1.26,0,0,1,.66-1,3.55,3.55,0,0,0,.73-.55,1.57,1.57,0,0,0,.25-.59,45.38,45.38,0,0,0,.34-6.78V64.39a8.31,8.31,0,0,0-.18-2.24,1,1,0,0,0-.89-.58c-.85-.12-1.28-.47-1.28-1.07a1.41,1.41,0,0,1,.56-1.08,6.6,6.6,0,0,1,1.85-1A20.13,20.13,0,0,1,138.2,57C138.8,57,139.09,57.21,139.07,57.72Z"/><path class="cls-12" d="M97.42,95.19a17.29,17.29,0,0,1,3.37.32q2.13.42,2.13,1.8a1,1,0,0,1-.21.68,4.54,4.54,0,0,1-1.07.67,2,2,0,0,0-1,1.59,31.84,31.84,0,0,0-.23,4.77,51.71,51.71,0,0,0,.3,7.42,1.44,1.44,0,0,0,.34.7,2.88,2.88,0,0,0,.79.52,1.49,1.49,0,0,1,1,1.37c0,.84-.63,1.41-1.91,1.72a21.54,21.54,0,0,1-5.07.51q-5.11,0-5.12-2c0-.47.34-.91,1-1.32a1.85,1.85,0,0,0,.91-1.28,58.91,58.91,0,0,0,.3-7.6,19.61,19.61,0,0,0-.41-5.15,2.37,2.37,0,0,0-1-1.16,3.81,3.81,0,0,1-.87-.71,1.14,1.14,0,0,1-.22-.72,1.2,1.2,0,0,1,.66-1.07,7.3,7.3,0,0,1,2.29-.72A20.42,20.42,0,0,1,97.42,95.19Z"/><path class="cls-12" d="M123,107.1l.22,5.53a2.19,2.19,0,0,0,.19.92,7.74,7.74,0,0,0,1,1.15,1,1,0,0,1,.23.71c0,.69-.41,1.17-1.24,1.44a16.19,16.19,0,0,1-4.42.41,8.66,8.66,0,0,1-3.06-.38,1.32,1.32,0,0,1-.93-1.27.81.81,0,0,1,.1-.46,6.94,6.94,0,0,1,.62-.73c.42-.44.63-1.91.63-4.4a7.8,7.8,0,0,0-.5-3.2,1.83,1.83,0,0,0-3-.16,5.36,5.36,0,0,0-.39,2.45v3.11a5,5,0,0,0,.11,1.27,7.54,7.54,0,0,0,.78,1.33,1.19,1.19,0,0,1,.17.65c0,.62-.43,1.07-1.28,1.36a13.22,13.22,0,0,1-4,.44q-4.37,0-4.36-1.8a1,1,0,0,1,.13-.57,2.68,2.68,0,0,1,.63-.56,1.27,1.27,0,0,0,.52-.68,12.09,12.09,0,0,0,.21-1.9c.07-1.19.11-2.44.11-3.75a3.86,3.86,0,0,0-.17-1.42,2.54,2.54,0,0,0-1-.82,1.21,1.21,0,0,1-.67-1,1.19,1.19,0,0,1,.55-1,10.07,10.07,0,0,1,2.26-1c1-.35,2-.65,2.9-.9a9,9,0,0,1,1.91-.37,1.06,1.06,0,0,1,.8.35,1.17,1.17,0,0,1,.32.81s0,.17,0,.4a1.7,1.7,0,0,0,0,.22q0,.75.63.75c.25,0,.51-.2.8-.6a4.47,4.47,0,0,1,3.92-1.94,5.57,5.57,0,0,1,3.39,1,3.94,3.94,0,0,1,1.38,1.74A9.92,9.92,0,0,1,123,107.1Z"/><path class="cls-12" d="M40.07,148.12v-8.25a5.62,5.62,0,0,0-.22-2,1.86,1.86,0,0,0-1.19-.7q-1.41-.4-1.41-1.41a1.19,1.19,0,0,1,.59-1.08,3.26,3.26,0,0,1,1.73-.38l1.87.05h.94c1.73,0,2.75,0,3,0l3.19-.27a14.58,14.58,0,0,1,1.67-.1,9.75,9.75,0,0,1,4.58,1,6.09,6.09,0,0,1,3.5,5.78,6.22,6.22,0,0,1-2.45,5.13,8.82,8.82,0,0,1-5.59,1.81c-.55,0-1.23,0-2-.11-.43,0-.69-.05-.8-.05-.3,0-.45.17-.45.52v.09l.11,2.57a2.28,2.28,0,0,0,.27,1.13,2.73,2.73,0,0,0,1,.76c.68.36,1,.76,1,1.19,0,.66-.5,1.17-1.51,1.52a13.15,13.15,0,0,1-4.27.54q-5.8,0-5.8-2a1,1,0,0,1,.25-.72,5.23,5.23,0,0,1,1.18-.72,1.16,1.16,0,0,0,.65-.83A31.8,31.8,0,0,0,40.07,148.12Zm7.08-10.25v5.34c0,.41.09.65.26.74a2.77,2.77,0,0,0,1.15.22,2.64,2.64,0,0,0,1.74-.59,3.4,3.4,0,0,0,1-2.79,3.49,3.49,0,0,0-1.19-2.95,2.87,2.87,0,0,0-1.82-.58C47.53,137.26,47.15,137.46,47.15,137.87Z"/><path class="cls-12" d="M66.73,140c.56,0,.9.07,1,.23a4.4,4.4,0,0,1,.32,1.51q.08.69.48.69c.21,0,.41-.15.6-.46a3.78,3.78,0,0,1,3.28-2,3.14,3.14,0,0,1,2.34.93,3.53,3.53,0,0,1,.72,1.17,3.51,3.51,0,0,1-.06,2.88,3.68,3.68,0,0,1-.9,1.28,3.43,3.43,0,0,1-2.46,1,2.86,2.86,0,0,1-1.34-.28,6.6,6.6,0,0,1-1.42-1.15.93.93,0,0,0-.61-.33.58.58,0,0,0-.58.5A10,10,0,0,0,68,148a20.37,20.37,0,0,0,.17,3.23,1.35,1.35,0,0,0,.31.65,2.41,2.41,0,0,0,.84.37q1.41.42,1.41,1.47a1.6,1.6,0,0,1-.45,1.13,2.24,2.24,0,0,1-1.21.63,23.2,23.2,0,0,1-4.43.32,14.07,14.07,0,0,1-4.22-.49,1.59,1.59,0,0,1-1.29-1.52,1.81,1.81,0,0,1,.94-1.46,2.26,2.26,0,0,0,.63-.54,1.51,1.51,0,0,0,.24-.67,37.55,37.55,0,0,0,.25-5.29,2.26,2.26,0,0,0-.16-1,1.11,1.11,0,0,0-.63-.5c-.74-.29-1.11-.71-1.11-1.27a1.57,1.57,0,0,1,.77-1.29,9.46,9.46,0,0,1,2.57-1.08A15.25,15.25,0,0,1,66.73,140Z"/><path class="cls-12" d="M85.9,139.87a8.6,8.6,0,0,1,5,1.49,7.94,7.94,0,0,1,2.5,2.77,7.73,7.73,0,0,1,1,3.74,7.09,7.09,0,0,1-3.12,5.79,10.94,10.94,0,0,1-6.83,2.28,8.63,8.63,0,0,1-6.07-2.14,7,7,0,0,1-2.26-5.4,7.58,7.58,0,0,1,2.76-6.05A10.37,10.37,0,0,1,85.9,139.87Zm-1.26,3.62a1.37,1.37,0,0,0-1.11.51,2.12,2.12,0,0,0-.41,1.36,13.11,13.11,0,0,0,.35,2.56,20,20,0,0,0,.84,2.88,1.67,1.67,0,0,0,1.59,1.29c.93,0,1.39-.59,1.39-1.77a14.42,14.42,0,0,0-.35-3,12.25,12.25,0,0,0-.86-2.73A1.65,1.65,0,0,0,84.64,143.49Z"/><path class="cls-12" d="M112.21,139a.84.84,0,0,1,.7.45,1.92,1.92,0,0,1,.29,1.05,3.32,3.32,0,0,1-.4,1.45,4,4,0,0,1-1,1.31c-.24.21-.36.37-.36.5s0,.16,0,.38a4.4,4.4,0,0,1,0,.59,4.28,4.28,0,0,1-1.26,3.14,7.64,7.64,0,0,1-2.91,1.76,11.68,11.68,0,0,1-3.92.63,7,7,0,0,1-1-.07,5.82,5.82,0,0,0-.62,0,.74.74,0,0,0-.84.83.94.94,0,0,0,.55.84,3,3,0,0,0,1.46.3,13.39,13.39,0,0,0,1.85-.17,30.7,30.7,0,0,1,3.8-.36,5.63,5.63,0,0,1,2.88.61,3.55,3.55,0,0,1,1.29,1.32,3.64,3.64,0,0,1,.48,1.82,5,5,0,0,1-1.16,3.08,8.11,8.11,0,0,1-4.07,2.6,16.23,16.23,0,0,1-4.86.66,12.67,12.67,0,0,1-5.65-1.07,4.25,4.25,0,0,1-1.6-1.31,2.84,2.84,0,0,1-.6-1.7,2,2,0,0,1,.34-1.13,2,2,0,0,1,.85-.74c.32-.12.47-.26.47-.4s-.13-.29-.39-.51a2.89,2.89,0,0,1-1.25-2.18,2.6,2.6,0,0,1,.6-1.55,4,4,0,0,1,1.5-1.24c.25-.13.37-.25.37-.38s-.15-.36-.47-.66a4.61,4.61,0,0,1-1.61-3.48,3.88,3.88,0,0,1,.57-2,5,5,0,0,1,1.59-1.63,10.07,10.07,0,0,1,5.61-1.65,13.51,13.51,0,0,1,2.73.31,12.21,12.21,0,0,0,2,.29,5.45,5.45,0,0,0,3.4-1.35A1.17,1.17,0,0,1,112.21,139Zm-11.94,17.53c-.26,0-.39.16-.39.46a1.69,1.69,0,0,0,1,1.5,5.26,5.26,0,0,0,2.61.57,5.68,5.68,0,0,0,2.41-.41,1.26,1.26,0,0,0,.87-1.14.84.84,0,0,0-.33-.67,1.25,1.25,0,0,0-.82-.27,6.37,6.37,0,0,0-.72.06,12.89,12.89,0,0,1-2,.14,15.25,15.25,0,0,1-1.54-.08,7.16,7.16,0,0,1-.89-.12A1,1,0,0,0,100.27,156.56Zm3.42-14.28a1.54,1.54,0,0,0-1.26.6,2.44,2.44,0,0,0-.48,1.58,6,6,0,0,0,.52,2.72,1.52,1.52,0,0,0,2.68.38,2.68,2.68,0,0,0,.49-1.7,5.49,5.49,0,0,0-.51-2.61A1.66,1.66,0,0,0,103.69,142.28Z"/><path class="cls-12" d="M121.58,140c.56,0,.9.07,1,.23a4.4,4.4,0,0,1,.32,1.51c0,.46.21.69.49.69s.4-.15.59-.46a3.78,3.78,0,0,1,3.28-2,3.14,3.14,0,0,1,2.34.93,3.53,3.53,0,0,1,.72,1.17,3.51,3.51,0,0,1-.06,2.88,3.68,3.68,0,0,1-.9,1.28,3.43,3.43,0,0,1-2.46,1,2.86,2.86,0,0,1-1.34-.28,6.6,6.6,0,0,1-1.42-1.15.93.93,0,0,0-.61-.33.58.58,0,0,0-.58.5,10,10,0,0,0-.13,2.08,20.37,20.37,0,0,0,.17,3.23,1.35,1.35,0,0,0,.31.65,2.41,2.41,0,0,0,.84.37q1.41.42,1.41,1.47a1.6,1.6,0,0,1-.45,1.13,2.24,2.24,0,0,1-1.21.63,23.2,23.2,0,0,1-4.43.32,14.07,14.07,0,0,1-4.22-.49,1.59,1.59,0,0,1-1.29-1.52,1.8,1.8,0,0,1,1-1.46,2.34,2.34,0,0,0,.62-.54,1.51,1.51,0,0,0,.24-.67,36,36,0,0,0,.25-5.29,2.26,2.26,0,0,0-.16-1,1.11,1.11,0,0,0-.63-.5c-.74-.29-1.11-.71-1.11-1.27a1.57,1.57,0,0,1,.77-1.29,9.46,9.46,0,0,1,2.57-1.08A15.32,15.32,0,0,1,121.58,140Z"/><path class="cls-12" d="M145.6,148.48h-7.38c-.32,0-.49.14-.49.43a2.51,2.51,0,0,0,1.11,1.92,3.71,3.71,0,0,0,2.38.9,5.7,5.7,0,0,0,1.67-.29,5.44,5.44,0,0,0,1.51-.71,1.61,1.61,0,0,1,.85-.38,1.08,1.08,0,0,1,.8.5,1.69,1.69,0,0,1,.39,1,2.86,2.86,0,0,1-1.41,2.18,9.37,9.37,0,0,1-5.76,1.87,8.14,8.14,0,0,1-5.52-1.92,7.7,7.7,0,0,1-1.79-2.27A8,8,0,0,1,131,148a7.66,7.66,0,0,1,1.6-4.74,8.35,8.35,0,0,1,3.52-2.71,8.8,8.8,0,0,1,3.47-.68,7.82,7.82,0,0,1,5.07,1.7,6.75,6.75,0,0,1,1.69,2,5.29,5.29,0,0,1,.74,2.58,2.94,2.94,0,0,1-.43,1.67A1.27,1.27,0,0,1,145.6,148.48Zm-7-2.93h1.58c.67,0,1-.31,1-.93a2,2,0,0,0-.49-1.38,1.75,1.75,0,0,0-2.65.16,2.14,2.14,0,0,0-.47,1.3.83.83,0,0,0,.22.66A1.34,1.34,0,0,0,138.63,145.55Z"/><path class="cls-12" d="M154.42,139.88a15.38,15.38,0,0,1,2.55.35,2.33,2.33,0,0,0,1.64-.22,1.59,1.59,0,0,1,.61-.14,2,2,0,0,1,1.46.92,6.63,6.63,0,0,1,1,1.62,4,4,0,0,1,.38,1.52,1.37,1.37,0,0,1-.44,1,1.54,1.54,0,0,1-1.1.42,1.8,1.8,0,0,1-1-.27,10.11,10.11,0,0,1-1.39-1.17,2.77,2.77,0,0,0-1.66-1,1.11,1.11,0,0,0-1.09,1.09c0,.51.5,1,1.48,1.44a13.3,13.3,0,0,1,4.06,2.61,3.93,3.93,0,0,1,1.2,2.91,4.43,4.43,0,0,1-1.92,3.65,6.44,6.44,0,0,1-4,1.27,20.72,20.72,0,0,1-2.23-.21c-1-.11-1.59-.17-1.71-.17a2.9,2.9,0,0,0-.47.05,6,6,0,0,1-.66.06,1.69,1.69,0,0,1-1.16-.38,5.26,5.26,0,0,1-1.2-1.83,5.54,5.54,0,0,1-.54-2.14c0-1,.37-1.44,1.13-1.44a1.27,1.27,0,0,1,.8.29,19.92,19.92,0,0,1,1.55,1.54,5.4,5.4,0,0,0,1.07.95,1.63,1.63,0,0,0,.91.26,1.24,1.24,0,0,0,.83-.27.92.92,0,0,0,.31-.73c0-.47-.4-.9-1.21-1.29a11.13,11.13,0,0,1-3.64-2.56,4.53,4.53,0,0,1-1.13-3,4.83,4.83,0,0,1,1.15-3.22A5.55,5.55,0,0,1,154.42,139.88Z"/><path class="cls-12" d="M169.73,139.88a15.33,15.33,0,0,1,2.56.35,3.77,3.77,0,0,0,.6.06,3.68,3.68,0,0,0,1-.28,1.64,1.64,0,0,1,.62-.14,2,2,0,0,1,1.46.92,7,7,0,0,1,1,1.62,3.93,3.93,0,0,1,.37,1.52,1.36,1.36,0,0,1-.43,1,1.54,1.54,0,0,1-1.1.42,1.78,1.78,0,0,1-1-.27,10.11,10.11,0,0,1-1.39-1.17,2.79,2.79,0,0,0-1.67-1,1.09,1.09,0,0,0-1.08,1.09c0,.51.49,1,1.48,1.44a13.43,13.43,0,0,1,4.06,2.61,3.92,3.92,0,0,1,1.19,2.91,4.42,4.42,0,0,1-1.91,3.65,6.44,6.44,0,0,1-4,1.27,20.51,20.51,0,0,1-2.23-.21c-1-.11-1.59-.17-1.71-.17a2.79,2.79,0,0,0-.47.05,6,6,0,0,1-.66.06,1.67,1.67,0,0,1-1.16-.38,5.26,5.26,0,0,1-1.2-1.83,5.58,5.58,0,0,1-.55-2.14c0-1,.38-1.44,1.13-1.44a1.28,1.28,0,0,1,.81.29,19.92,19.92,0,0,1,1.55,1.54,5.7,5.7,0,0,0,1.06.95,1.68,1.68,0,0,0,.91.26,1.25,1.25,0,0,0,.84-.27,1,1,0,0,0,.31-.73c0-.47-.4-.9-1.21-1.29a11.3,11.3,0,0,1-3.65-2.56,4.52,4.52,0,0,1-1.12-3,4.78,4.78,0,0,1,1.15-3.22A5.53,5.53,0,0,1,169.73,139.88Z"/></g></svg>